#!OML:ASF X:\für Bonn\!DataBase\2005_08_11_Bastian_Final\c3d\Bastian.ASF
:FULLY-SPECIFIED
:DEGREES
136
root 4.51511 17.147 -6.96275 167.482 21.5008 -179.264
lowerback 9.4426 -3.20283 2.60952
upperback 8.38108 -3.27396 0.146988
thorax 3.29568 -1.16371 -1.07245
lowerneck -10.4406 -0.325249 -5.59512
upperneck -3.94064 0.529789 4.42058
head 0.521591 0.538242 2.4016
rclavicle -2.73826e-014 9.74045e-015
rhumerus -51.6654 22.6042 -103.287
rradius 113.257
rwrist 3.63263
rhand -16.3767 11.6005
rfingers 7.12502
rthumb 9.83672 -18.1497
lclavicle -2.73826e-014 9.74045e-015
lhumerus -26.1413 -33.3577 96.9238
lradius 122.61
lwrist 32.4048
lhand -5.19373 -21.6098
lfingers 7.12502
lthumb 20.6073 7.31633
rfemur 7.45556 3.33794 26.3556
rtibia 41.6637
rfoot -23.0442 0.654207
rtoes 0.412679
lfemur -8.17938 3.54114 -14.9772
ltibia 66.5644
lfoot -7.67765 1.13224
ltoes -20.5233
137
root 4.50874 17.1141 -7.0139 167.92 20.9033 -179.025
lowerback 8.94843 -3.36325 2.68819
upperback 8.21108 -3.53737 0.273274
thorax 3.38023 -1.31166 -0.987374
lowerneck -10.3832 -0.388765 -5.67953
upperneck -3.83962 0.440674 4.55158
head 0.549927 0.491844 2.45833
rclavicle 2.1916e-014 0
rhumerus -50.9621 22.671 -103.59
rradius 113.356
rwrist 3.92458
rhand -16.3538 12.0943
rfingers 7.12502
rthumb 9.85887 -17.6549
lclavicle 2.1916e-014 0
lhumerus -25.6479 -34.0356 96.9601
lradius 122.577
lwrist 32.6587
lhand -5.44337 -21.6433
lfingers 7.12502
lthumb 20.3674 7.30861
rfemur 7.23789 2.8448 26.4111
rtibia 41.7606
rfoot -23.6606 0.287376
rtoes -0.404686
lfemur -7.49802 3.44053 -15.0225
ltibia 65.4549
lfoot -8.92019 0.433623
ltoes -22.0956
138
root 4.50316 17.0799 -7.06598 168.32 20.2212 -178.857
lowerback 8.43169 -3.53715 2.68764
upperback 8.05625 -3.82251 0.377605
thorax 3.49757 -1.47185 -0.884391
lowerneck -10.3227 -0.451051 -5.74667
upperneck -3.73336 0.350511 4.67027
head 0.579585 0.444382 2.5078
rclavicle 2.18663e-015 2.14687e-014
rhumerus -50.2491 22.7904 -103.87
rradius 113.482
rwrist 4.19723
rhand -16.3653 12.65
rfingers 7.12502
rthumb 9.84773 -17.0997
lclavicle 2.18663e-015 2.14687e-014
lhumerus -25.1001 -34.7216 96.969
lradius 122.532
lwrist 32.9291
lhand -5.69535 -21.6886
lfingers 7.12502
lthumb 20.1252 7.28905
rfemur 7.02261 2.35512 26.4156
rtibia 41.8845
rfoot -24.2137 -0.129249
rtoes -1.11642
lfemur -6.87098 3.30984 -15.1447
ltibia 64.3968
lfoot -10.1603 -0.14695
ltoes -23.7716
139
root 4.49812 17.0453 -7.11909 168.722 19.4924 -178.645
lowerback 7.89825 -3.72579 2.72613
upperback 7.92436 -4.12278 0.487587
thorax 3.64776 -1.63516 -0.801503
lowerneck -10.3226 -0.525125 -5.79903
upperneck -3.59279 0.245688 4.80066
head 0.631784 0.390383 2.55888
rclavicle -1.10822e-014 -1.59028e-015
rhumerus -49.4423 22.9314 -104.126
rradius 113.657
rwrist 4.40361
rhand -16.3112 13.16
rfingers 7.12502
rthumb 9.89997 -16.5872
lclavicle -1.10822e-014 -1.59028e-015
lhumerus -24.4424 -35.3877 96.9045
lradius 122.448
lwrist 33.1663
lhand -5.91988 -21.7661
lfingers 7.12502
lthumb 19.9094 7.23409
rfemur 6.81501 1.92223 26.5104
rtibia 42.0349
rfoot -24.7081 -0.621673
rtoes -1.66865
lfemur -6.29434 3.14213 -15.2132
ltibia 63.3801
lfoot -11.4038 -0.598796
ltoes -25.5328
140
root 4.49361 17.012 -7.17302 169.113 18.709 -178.506
lowerback 7.34259 -3.92277 2.68134
upperback 7.78502 -4.44044 0.590651
thorax 3.8093 -1.81118 -0.684233
lowerneck -10.2756 -0.595204 -5.85402
upperneck -3.46949 0.143378 4.90011
head 0.670256 0.336451 2.59955
rclavicle 8.19987e-015 -1.59028e-015
rhumerus -48.6446 23.1913 -104.341
rradius 113.855
rwrist 4.54159
rhand -16.3033 13.6305
rfingers 7.12502
rthumb 9.90753 -16.1164
lclavicle 8.19987e-015 -1.59028e-015
lhumerus -23.7583 -36.0242 96.832
lradius 122.346
lwrist 33.352
lhand -6.15591 -21.8898
lfingers 7.12502
lthumb 19.6825 7.13377
rfemur 6.56408 1.53281 26.5602
rtibia 42.2281
rfoot -25.1006 -1.14624
rtoes -2.33083
lfemur -5.78087 3.03348 -15.3284
ltibia 62.3873
lfoot -12.6148 -0.995981
ltoes -26.9562
